<svg class="svg-icon" style="width: 1.0029296875em; height: 1em;vertical-align: middle;overflow: hidden;     fill: white;" viewBox="0 0 1027 1024" version="1.1" xmlns="http://www.w3.org/2000/svg"><path d="M512.004382 71.789679c59.425901 0 117.057059 11.665823 171.29815 34.598636 52.446349 22.135151 99.508471 53.941967 139.989873 94.323662 40.481402 40.481402 72.18851 87.543525 94.323661 139.989873 22.932814 54.241091 34.598637 111.872249 34.598637 171.29815 0 59.425901-11.665823 117.057059-34.598637 171.29815-22.135151 52.446349-53.941967 99.508471-94.323661 139.989873-40.481402 40.481402-87.543525 72.18851-139.989873 94.323662-54.241091 22.932814-111.872249 34.598637-171.29815 34.598636s-117.057059-11.665823-171.29815-34.598636c-52.446349-22.135151-99.508471-53.941967-139.989874-94.323662s-72.18851-87.543525-94.323661-139.989873c-22.932814-54.241091-34.598637-111.872249-34.598637-171.29815 0-59.425901 11.665823-117.057059 34.598637-171.29815 22.135151-52.446349 53.941967-99.508471 94.323661-139.989873s87.543525-72.18851 139.989874-94.323662c54.241091-22.932814 111.872249-34.598637 171.29815-34.598636m0-71.789679C229.232814 0 0.004382 229.228432 0.004382 512s229.228432 512 512 512 512-229.228432 512-512S794.775949 0 512.004382 0z"  /><path d="M562.755696 512l121.244791-121.244791c14.058812-14.058812 14.058812-36.79221 0-50.751314s-36.79221-14.058812-50.751315 0L512.004382 461.248685 390.759591 340.003895c-14.058812-14.058812-36.79221-14.058812-50.751314 0s-14.058812 36.79221 0 50.751314L461.253067 512 340.008277 633.244791c-14.058812 14.058812-14.058812 36.79221 0 50.751314 6.979552 6.979552 16.152678 10.469328 25.425511 10.469328s18.346251-3.489776 25.425511-10.469328L512.004382 562.751315l121.24479 121.24479c6.979552 6.979552 16.152678 10.469328 25.425512 10.469328s18.346251-3.489776 25.425511-10.469328c14.058812-14.058812 14.058812-36.79221 0-50.751314L562.755696 512z"  /></svg>