<svg width="24" height="24" viewBox="0 0 24 24" fill="none" xmlns="http://www.w3.org/2000/svg">
<path d="M15.2744 12.6384C16.1562 11.9446 16.7999 10.9932 17.1158 9.91651C17.4317 8.83985 17.4043 7.69148 17.0371 6.63117C16.67 5.57087 15.9816 4.65135 15.0675 4.00054C14.1535 3.34973 13.0593 3 11.9373 3C10.8152 3 9.72106 3.34973 8.80702 4.00054C7.89298 4.65135 7.20451 5.57087 6.83741 6.63117C6.4703 7.69148 6.44281 8.83985 6.75875 9.91651C7.07469 10.9932 7.71836 11.9446 8.6002 12.6384C7.08914 13.2438 5.77069 14.2479 4.7854 15.5436C3.80012 16.8394 3.18493 18.3783 3.00543 19.9961C2.99243 20.1143 3.00283 20.2338 3.03603 20.3479C3.06923 20.462 3.12458 20.5684 3.19891 20.6612C3.34904 20.8484 3.56741 20.9683 3.80596 20.9946C4.04452 21.0208 4.28373 20.9512 4.47097 20.8011C4.65821 20.651 4.77815 20.4326 4.80439 20.194C5.0019 18.4357 5.84031 16.8118 7.15943 15.6326C8.47855 14.4533 10.1859 13.8014 11.9553 13.8014C13.7246 13.8014 15.432 14.4533 16.7511 15.6326C18.0702 16.8118 18.9086 18.4357 19.1061 20.194C19.1306 20.4151 19.2361 20.6192 19.4022 20.767C19.5683 20.9149 19.7833 20.9959 20.0056 20.9946H20.1046C20.3404 20.9674 20.5559 20.8482 20.7041 20.6629C20.8524 20.4776 20.9214 20.2411 20.8961 20.0051C20.7158 18.3827 20.0973 16.8399 19.1069 15.5421C18.1166 14.2443 16.7917 13.2406 15.2744 12.6384ZM11.9373 11.9998C11.2257 11.9998 10.5301 11.7887 9.93838 11.3934C9.3467 10.9981 8.88554 10.4361 8.61323 9.7787C8.34091 9.12126 8.26966 8.39784 8.40848 7.69991C8.54731 7.00198 8.88998 6.36089 9.39316 5.85771C9.89634 5.35453 10.5374 5.01187 11.2354 4.87304C11.9333 4.73421 12.6567 4.80546 13.3141 5.07778C13.9716 5.3501 14.5335 5.81126 14.9288 6.40293C15.3242 6.99461 15.5352 7.69023 15.5352 8.40183C15.5352 9.35606 15.1561 10.2712 14.4814 10.9459C13.8067 11.6207 12.8915 11.9998 11.9373 11.9998Z"/>
<defs>
<linearGradient id="paint0_linear_396_1193" x1="11.9506" y1="3" x2="11.9506" y2="27.4286" gradientUnits="userSpaceOnUse">
<stop offset="0.210526" stop-color="#33846B"/>
<stop offset="0.710526" stop-color="#006546"/>
</linearGradient>
</defs>
</svg>
