<svg width="28" height="28" viewBox="0 0 28 28" fill="none" xmlns="http://www.w3.org/2000/svg">
<path fill-rule="evenodd" clip-rule="evenodd" d="M5.83325 23.334H9.33325C9.64267 23.334 9.93942 23.4569 10.1582 23.6757C10.377 23.8945 10.4999 24.1912 10.4999 24.5007C10.4999 24.8101 10.377 25.1068 10.1582 25.3256C9.93942 25.5444 9.64267 25.6673 9.33325 25.6673H5.83325C4.90499 25.6673 4.01476 25.2986 3.35838 24.6422C2.702 23.9858 2.33325 23.0956 2.33325 22.1673V18.6673C2.33325 18.3579 2.45617 18.0612 2.67496 17.8424C2.89375 17.6236 3.1905 17.5007 3.49992 17.5007C3.80934 17.5007 4.10608 17.6236 4.32488 17.8424C4.54367 18.0612 4.66659 18.3579 4.66659 18.6673V22.1673C4.66659 22.4767 4.7895 22.7735 5.00829 22.9923C5.22709 23.2111 5.52383 23.334 5.83325 23.334ZM4.32488 10.1589C4.10608 10.3777 3.80934 10.5007 3.49992 10.5007C3.1905 10.5007 2.89375 10.3777 2.67496 10.1589C2.45617 9.94015 2.33325 9.6434 2.33325 9.33398V5.83398C2.33325 4.90573 2.702 4.01549 3.35838 3.35911C4.01476 2.70273 4.90499 2.33398 5.83325 2.33398H9.33325C9.64267 2.33398 9.93942 2.4569 10.1582 2.67569C10.377 2.89449 10.4999 3.19123 10.4999 3.50065C10.4999 3.81007 10.377 4.10682 10.1582 4.32561C9.93942 4.5444 9.64267 4.66732 9.33325 4.66732H5.83325C5.52383 4.66732 5.22709 4.79023 5.00829 5.00903C4.7895 5.22782 4.66659 5.52456 4.66659 5.83398V9.33398C4.66659 9.6434 4.54367 9.94015 4.32488 10.1589ZM18.6666 2.33398H22.1666C23.0948 2.33398 23.9851 2.70273 24.6415 3.35911C25.2978 4.01549 25.6666 4.90573 25.6666 5.83398V9.33398C25.6666 9.6434 25.5437 9.94015 25.3249 10.1589C25.1061 10.3777 24.8093 10.5007 24.4999 10.5007C24.1905 10.5007 23.8938 10.3777 23.675 10.1589C23.4562 9.94015 23.3333 9.6434 23.3333 9.33398V5.83398C23.3333 5.52456 23.2103 5.22782 22.9915 5.00903C22.7728 4.79023 22.476 4.66732 22.1666 4.66732H18.6666C18.3572 4.66732 18.0604 4.5444 17.8416 4.32561C17.6228 4.10682 17.4999 3.81007 17.4999 3.50065C17.4999 3.19123 17.6228 2.89449 17.8416 2.67569C18.0604 2.4569 18.3572 2.33398 18.6666 2.33398ZM23.675 17.8424C23.8938 17.6236 24.1905 17.5007 24.4999 17.5007C24.8093 17.5007 25.1061 17.6236 25.3249 17.8424C25.5437 18.0612 25.6666 18.3579 25.6666 18.6673V22.1673C25.6666 23.0956 25.2978 23.9858 24.6415 24.6422C23.9851 25.2986 23.0948 25.6673 22.1666 25.6673H18.6666C18.3572 25.6673 18.0604 25.5444 17.8416 25.3256C17.6228 25.1068 17.4999 24.8101 17.4999 24.5007C17.4999 24.1912 17.6228 23.8945 17.8416 23.6757C18.0604 23.4569 18.3572 23.334 18.6666 23.334H22.1666C22.476 23.334 22.7728 23.2111 22.9915 22.9923C23.2103 22.7735 23.3333 22.4767 23.3333 22.1673V18.6673C23.3333 18.3579 23.4562 18.0612 23.675 17.8424ZM3.79159 12.834H24.2083C24.595 12.834 24.966 12.9569 25.2394 13.1757C25.5129 13.3945 25.6666 13.6912 25.6666 14.0007C25.6666 14.3101 25.5129 14.6068 25.2394 14.8256C24.966 15.0444 24.595 15.1673 24.2083 15.1673H3.79159C3.40481 15.1673 3.03388 15.0444 2.76039 14.8256C2.4869 14.6068 2.33325 14.3101 2.33325 14.0007C2.33325 13.6912 2.4869 13.3945 2.76039 13.1757C3.03388 12.9569 3.40481 12.834 3.79159 12.834Z"/>
<defs>
<linearGradient id="paint0_linear_396_1186" x1="13.9999" y1="2.33398" x2="13.9999" y2="34.0006" gradientUnits="userSpaceOnUse">
<stop offset="0.210526" stop-color="#33846B"/>
<stop offset="0.710526" stop-color="#006546"/>
</linearGradient>
</defs>
</svg>
