<svg width="24" height="24" viewBox="0 0 24 24" fill="none" xmlns="http://www.w3.org/2000/svg">
<path d="M22.7359 15.248L21.1915 13.9276C21.2646 13.4796 21.3023 13.0222 21.3023 12.5647C21.3023 12.1073 21.2646 11.6498 21.1915 11.2018L22.7359 9.88139C22.8524 9.78167 22.9358 9.64884 22.9749 9.50058C23.0141 9.35232 23.0072 9.19565 22.9552 9.0514L22.934 8.99009C22.5088 7.80176 21.8721 6.70015 21.0547 5.7385L21.0123 5.68899C20.9131 5.57239 20.7809 5.48858 20.6332 5.44859C20.4854 5.4086 20.3291 5.41432 20.1846 5.46498L18.2676 6.14643C17.5602 5.56637 16.7703 5.10894 15.9168 4.78826L15.5466 2.78401C15.5186 2.6332 15.4455 2.49446 15.3368 2.38622C15.2282 2.27798 15.0891 2.20537 14.9382 2.17802L14.8746 2.16623C13.6461 1.94459 12.3539 1.94459 11.1254 2.16623L11.0618 2.17802C10.9109 2.20537 10.7718 2.27798 10.6632 2.38622C10.5545 2.49446 10.4814 2.6332 10.4534 2.78401L10.0809 4.79769C9.23412 5.11843 8.44557 5.57563 7.74653 6.15114L5.81538 5.46498C5.67099 5.41391 5.51448 5.40799 5.36665 5.448C5.21882 5.48802 5.08666 5.57207 4.98774 5.68899L4.9453 5.7385C4.12886 6.70083 3.49228 7.80225 3.06603 8.99009L3.04481 9.0514C2.9387 9.34614 3.02594 9.67625 3.26409 9.88139L4.8274 11.216C4.75431 11.6593 4.71894 12.112 4.71894 12.5624C4.71894 13.0151 4.75431 13.4678 4.8274 13.9087L3.26409 15.2433C3.1476 15.3431 3.06423 15.4759 3.02506 15.6241C2.98588 15.7724 2.99277 15.9291 3.04481 16.0733L3.06603 16.1346C3.49281 17.323 4.12474 18.4195 4.9453 19.3862L4.98774 19.4357C5.0869 19.5523 5.21907 19.6361 5.36681 19.6761C5.51455 19.7161 5.67095 19.7104 5.81538 19.6597L7.74653 18.9736C8.44919 19.5513 9.23438 20.0087 10.0809 20.327L10.4534 22.3407C10.4814 22.4915 10.5545 22.6303 10.6632 22.7385C10.7718 22.8467 10.9109 22.9194 11.0618 22.9467L11.1254 22.9585C12.3652 23.1813 13.6348 23.1813 14.8746 22.9585L14.9382 22.9467C15.0891 22.9194 15.2282 22.8467 15.3368 22.7385C15.4455 22.6303 15.5186 22.4915 15.5466 22.3407L15.9168 20.3365C16.77 20.0166 17.5644 19.5577 18.2676 18.9783L20.1846 19.6597C20.329 19.7108 20.4855 19.7167 20.6334 19.6767C20.7812 19.6367 20.9133 19.5527 21.0123 19.4357L21.0547 19.3862C21.8753 18.4171 22.5072 17.323 22.934 16.1346L22.9552 16.0733C23.0613 15.7833 22.9741 15.4532 22.7359 15.248ZM19.5173 11.4801C19.5763 11.8361 19.6069 12.2016 19.6069 12.5671C19.6069 12.9326 19.5763 13.298 19.5173 13.6541L19.3617 14.5996L21.1231 16.1063C20.8561 16.7215 20.519 17.3038 20.1186 17.8418L17.9304 17.066L17.19 17.6744C16.6265 18.1365 15.9993 18.4996 15.3202 18.7543L14.4218 19.0915L13.9998 21.3787C13.3338 21.4541 12.6615 21.4541 11.9955 21.3787L11.5735 19.0868L10.6822 18.7449C10.0101 18.4902 9.38529 18.1271 8.82646 17.6673L8.08607 17.0566L5.88376 17.8394C5.48291 17.2994 5.14808 16.717 4.87928 16.104L6.65952 14.5831L6.50625 13.6399C6.44966 13.2886 6.41901 12.9255 6.41901 12.5671C6.41901 12.2063 6.4473 11.8456 6.50625 11.4942L6.65952 10.551L4.87928 9.03018C5.14572 8.41476 5.48291 7.83471 5.88376 7.29474L8.08607 8.07757L8.82646 7.46687C9.38529 7.00707 10.0101 6.64395 10.6822 6.38929L11.5758 6.05211L11.9979 3.7602C12.6605 3.68474 13.3372 3.68474 14.0021 3.7602L14.4242 6.04739L15.3226 6.38458C15.9993 6.63923 16.6289 7.00236 17.1924 7.46451L17.9328 8.07286L20.121 7.2971C20.5218 7.83706 20.8566 8.41947 21.1254 9.03254L19.3641 10.5393L19.5173 11.4801ZM13.0024 8.18132C10.7104 8.18132 8.8524 10.0394 8.8524 12.3313C8.8524 14.6232 10.7104 16.4812 13.0024 16.4812C15.2943 16.4812 17.1523 14.6232 17.1523 12.3313C17.1523 10.0394 15.2943 8.18132 13.0024 8.18132ZM14.8698 14.1988C14.6249 14.4444 14.3338 14.6392 14.0133 14.7719C13.6928 14.9047 13.3492 14.9727 13.0024 14.9722C12.2973 14.9722 11.6348 14.6963 11.1349 14.1988C10.8892 13.9538 10.6944 13.6627 10.5617 13.3422C10.429 13.0218 10.3609 12.6782 10.3615 12.3313C10.3615 11.6263 10.6374 10.9637 11.1349 10.4638C11.6348 9.96392 12.2973 9.6904 13.0024 9.6904C13.7074 9.6904 14.37 9.96392 14.8698 10.4638C15.1155 10.7087 15.3103 10.9998 15.443 11.3203C15.5757 11.6408 15.6438 11.9844 15.6432 12.3313C15.6432 13.0363 15.3674 13.6989 14.8698 14.1988Z"/>
</svg>
